<mxfile host="app.diagrams.net" modified="2023-12-02T22:42:43.662Z" agent="Mozilla/5.0 (Macintosh; Intel Mac OS X 10_15_7) AppleWebKit/605.1.15 (KHTML, like Gecko) Version/17.1 Safari/605.1.15" version="22.1.5" etag="s5iLqGDM3LYp1_b1xDMf" type="github">
  <diagram name="Page-1" id="qEDIehNufg0YVBgSXOji">
    <mxGraphModel>
      <root>
        <mxCell id="0" />
        <mxCell id="1" parent="0" />
      </root>
    </mxGraphModel>
  </diagram>
</mxfile>
